Coordinates
version=1
nRows=11
nColumns=63
inDegrees=yes

Units are S.I. units (second, meters, Newtons, ...)
If the header above contains a line with 'inDegrees', this indicates whether rotational values are in degrees (yes) or radians (no).

endheader
time	pelvis_tilt	pelvis_list	pelvis_rotation	pelvis_tx	pelvis_ty	pelvis_tz	hip_flexion_r	hip_adduction_r	hip_rotation_r	knee_angle_r	knee_angle_r_beta	ankle_angle_r	subtalar_angle_r	mtp_angle_r	hip_flexion_l	hip_adduction_l	hip_rotation_l	knee_angle_l	knee_angle_l_beta	ankle_angle_l	subtalar_angle_l	mtp_angle_l	L5_S1_Flex_Ext	L5_S1_Lat_Bending	L5_S1_axial_rotation	L4_L5_Flex_Ext	L4_L5_Lat_Bending	L4_L5_axial_rotation	L3_L4_Flex_Ext	L3_L4_Lat_Bending	L3_L4_axial_rotation	L2_L3_Flex_Ext	L2_L3_Lat_Bending	L2_L3_axial_rotation	L1_L2_Flex_Ext	L1_L2_Lat_Bending	L1_L2_axial_rotation	L1_T12_Flex_Ext	L1_T12_Lat_Bending	L1_T12_axial_rotation	Abs_r3	Abs_r2	Abs_r1	Abs_t1	Abs_t2	neck_flexion	neck_bending	neck_rotation	arm_flex_r	arm_add_r	arm_rot_r	elbow_flex_r	pro_sup_r	wrist_flex_r	wrist_dev_r	arm_flex_l	arm_add_l	arm_rot_l	elbow_flex_l	pro_sup_l	wrist_flex_l	wrist_dev_l
      7.07142857	     -3.66378096	     -3.39570723	    100.77805284	      0.28774088	      0.69789987	      0.95270648	      5.13855055	     -3.51552388	     -8.32264795	     10.40988856	      0.18168683	     19.70619541	      1.09048388	      0.00000000	      4.24332013	      1.54448915	     -7.52351008	      6.04698075	      0.10553972	     18.44041108	     12.59446146	      0.00000000	      0.12736243	     -0.74239066	      1.55647502	      0.23652477	     -0.98737958	      1.65375471	      0.20924374	     -1.80504865	      1.65375471	      0.14556252	     -1.80504865	      1.36191564	      0.11826876	     -1.51388303	      1.26463595	      0.07277489	     -1.14996313	      1.16735626	      0.90973712	     -8.39807161	      8.65664710	      0.00000000	      0.00000000	     20.25022639	     -0.84528508	    -16.01748483	    134.05937204	    -22.46888983	    171.05854642	      0.22039691	      5.23804193	    -39.20519606	    -18.86482657	    -10.59397791	    -19.50913725	     13.77726040	     80.47861936	     89.05781528	      5.51881226	     19.63298124
      7.08928571	     -3.03423168	     -2.26678258	    100.91070658	      0.28562847	      0.69795958	      0.95492442	      4.32909319	     -2.81962257	     -8.44265422	     10.67819790	      0.18636971	     19.78130024	      1.00242732	      0.00000000	      3.34592963	      0.86000287	     -6.58790693	      6.26982254	      0.10942905	     18.83358310	     11.50887559	      0.00000000	      0.05606787	     -0.55656927	      1.00722773	      0.10412364	     -0.74023713	      1.07017946	      0.09211390	     -1.35324253	      1.07017946	      0.06407997	     -1.35324253	      0.88132426	      0.05206462	     -1.13495606	      0.81837253	      0.03203718	     -0.86212580	      0.75542079	      0.40048719	     -6.29602292	      5.60189845	      0.00000000	      0.00000000	     19.02237601	     -1.40435639	    -10.65185110	    133.37618863	    -19.12715882	    168.23544258	      0.17466763	      4.50258390	    -56.23603596	    -22.79326113	    -11.08084874	    -17.52602705	      8.93279399	     80.96152536	     88.98035628	      1.65650805	     16.43859076
      7.10714286	     -2.19957777	     -0.85736059	    100.88559821	      0.28296082	      0.69801826	      0.95718969	      3.35677945	     -1.91377702	     -8.66043421	     11.09446606	      0.19363496	     19.85821290	      1.09116431	      0.00000000	      2.14148908	     -0.02491172	     -5.40471409	      6.42386612	      0.11211761	     19.33276315	      9.85502306	      0.00000000	     -0.04741667	     -0.31808924	      0.43430630	     -0.08805750	     -0.42305869	      0.46145044	     -0.07790085	     -0.77340218	      0.46145044	     -0.05419251	     -0.77340218	      0.38001801	     -0.04403112	     -0.64864758	      0.35287387	     -0.02709388	     -0.49272024	      0.32572973	     -0.33869252	     -3.59828912	      2.41548135	      0.00000000	      0.00000000	     17.95467998	     -2.82480137	     -4.88672377	    132.66052377	    -15.11771589	    166.16203149	      0.13414203	      4.07633199	    -68.69932205	    -23.35410493	    -11.10684181	    -15.58792316	      3.88679571	     81.78323830	     88.92293629	     -1.23943788	     14.35228000
      7.12500000	     -1.00308903	      0.72059952	    100.57085946	      0.27938078	      0.69780364	      0.95967490	      2.33371178	     -0.70913762	     -8.99068535	     11.57328229	      0.20199188	     19.89313539	      1.72158077	      0.00000000	      0.82739914	     -1.23752940	     -4.36763020	      6.62057610	      0.11555085	     20.13287678	      7.99968238	      0.00000000	     -0.15660012	      0.00624480	     -0.26378906	     -0.29082208	      0.00830558	     -0.28027588	     -0.25727834	      0.01518360	     -0.28027588	     -0.17897828	      0.01518360	     -0.23081543	     -0.14541887	      0.01273439	     -0.21432861	     -0.08948131	      0.00967319	     -0.19784179	     -1.11857900	      0.07064237	     -1.46711561	      0.00000000	      0.00000000	     17.02266968	     -4.70029173	      2.95904636	    131.58762853	     -9.73992054	    162.66025006	      0.10226209	      2.48224313	    -69.54193356	    -23.97042431	    -11.42885072	    -13.58342725	     -2.16290786	     83.23947653	     88.89654204	     -2.80917673	     13.02797364
      7.14285714	      0.23415865	      2.10230483	    100.12548858	      0.27586144	      0.69781082	      0.96144261	      1.45989473	      0.47065731	     -9.38174080	     12.02551733	      0.20988487	     19.83323721	      2.61558877	      0.00000000	     -0.36112648	     -2.44463311	     -3.58363179	      6.75688986	      0.11792998	     20.81100736	      6.25963949	      0.00000000	     -0.24470381	      0.32515149	     -0.95358313	     -0.45443945	      0.43245149	     -1.01318208	     -0.40202389	      0.79057334	     -1.01318208	     -0.27967199	      0.79057334	     -0.83438524	     -0.22723196	      0.66304893	     -0.77478630	     -0.13982376	      0.50365967	     -0.71518735	     -1.74789486	      3.67817874	     -5.30354331	      0.00000000	      0.00000000	     16.61905370	     -6.66615026	     10.44968308	    130.06413058	     -4.41908107	    159.24548742	      0.08509786	      1.67781962	    -69.71081285	    -24.23895831	    -11.81472987	    -12.39834673	     -8.06732451	     85.52807173	     88.90741097	     -4.06123581	     12.18175057
      7.16071429	      1.39129802	      3.18062585	     99.62142826	      0.27257363	      0.69807586	      0.96236603	      0.78220834	      1.51661700	     -9.74762715	     12.38854516	      0.21622090	     19.67539095	      3.59710184	      0.00000000	     -1.35741305	     -3.51997752	     -3.00924048	      6.79426834	      0.11858235	     21.28633409	      4.71122422	      0.00000000	     -0.30210795	      0.61592721	     -1.64565873	     -0.56104467	      0.81918319	     -1.74851240	     -0.49633314	      1.49756542	     -1.74851240	     -0.34527917	      1.49756542	     -1.43995139	     -0.28053744	      1.25599877	     -1.33709772	     -0.17262448	      0.95407125	     -1.23424405	     -2.15792685	      6.96749180	     -9.15266015	      0.00000000	      0.00000000	     16.70869778	     -8.41577569	     17.43484068	    128.18706959	      0.71836097	    156.59982397	      0.07457474	      1.29564644	    -69.77832277	    -24.38405436	    -12.39031320	    -12.12890633	    -13.81167673	     88.71800473	     88.91946518	     -5.41245969	     11.86085986
      7.17857143	      2.33221583	      3.95257452	     99.18828661	      0.26986604	      0.69849917	      0.96252627	      0.29714527	      2.34296582	     -9.99900398	     12.67202252	      0.22116852	     19.52027976	      4.34032222	      0.00000000	     -2.14744101	     -4.36382069	     -2.61301587	      6.75383787	      0.11787671	     21.50306457	      3.50404620	      0.00000000	     -0.33047098	      0.85247975	     -2.34904919	     -0.61371766	      1.13379807	     -2.49586477	     -0.54293077	      2.07271927	     -2.49586477	     -0.37769528	      2.07271927	     -2.05541804	     -0.30687535	      1.73837671	     -1.90860247	     -0.18883112	      1.32049113	     -1.76178690	     -2.36052116	      9.64342144	    -13.06470690	      0.00000000	      0.00000000	     16.99882589	     -9.64565376	     23.75167784	    126.06890993	      5.53578824	    154.90151162	      0.06774637	      1.10589949	    -69.81113176	    -24.47484272	    -13.09730717	    -12.82482838	    -19.50865695	     92.63887518	     88.88958543	     -6.83744800	     11.89986666
      7.19642857	      2.94827041	      4.50173007	     98.87966966	      0.26806409	      0.69901400	      0.96212498	     -0.05361087	      2.89686298	    -10.02081731	     12.92384484	      0.22556364	     19.45898930	      4.58423046	      0.00000000	     -2.79772199	     -4.91161245	     -2.38353345	      6.64572654	      0.11598981	     21.49530612	      2.67881286	      0.00000000	     -0.33911230	      1.01425729	     -3.04579343	     -0.62976545	      1.34896220	     -3.23615552	     -0.55712759	      2.46606518	     -3.23615552	     -0.38757145	      2.46606518	     -2.66506925	     -0.31489968	      2.06827347	     -2.47470716	     -0.19376877	      1.57108454	     -2.28434507	     -2.42224524	     11.47348133	    -16.93978934	      0.00000000	      0.00000000	     17.19617686	    -10.27809756	     29.12589236	    123.80887663	      9.83501219	    154.12909277	      0.06306382	      1.01670869	    -69.82801925	    -24.53314518	    -13.79529335	    -14.50620248	    -25.23581742	     96.89174758	     88.78976380	     -8.10229860	     11.51498595
      7.21428571	      3.21608278	      4.98751065	     98.65399315	      0.26724460	      0.69964064	      0.96149349	     -0.35568159	      3.17329596	     -9.66988354	     13.27258966	      0.23165039	     19.58118362	      4.36915294	      0.00000000	     -3.42366595	     -5.17198194	     -2.26544643	      6.53233907	      0.11401082	     21.43216675	      2.21720267	      0.00000000	     -0.34590257	      1.09926350	     -3.70366048	     -0.64237566	      1.46202046	     -3.93513926	     -0.56828333	      2.67274928	     -3.93513926	     -0.39533205	      2.67274928	     -3.24070292	     -0.32120513	      2.24161813	     -3.00922414	     -0.19764873	      1.70275917	     -2.77774536	     -2.47074746	     12.43508860	    -20.59864852	      0.00000000	      0.00000000	     17.03681394	    -10.50236743	     33.31931520	    121.46829141	     13.51264885	    154.12960535	      0.05991725	      0.98590631	    -69.83747994	    -24.57094224	    -14.24629651	    -17.08953703	    -31.01707870	    100.82231404	     88.61616678	     -8.91244820	     10.02380079
      7.23214286	      3.16879651	      5.46755472	     98.70674116	      0.26699577	      0.70025203	      0.96122374	     -0.64332814	      3.21380971	     -9.20344739	     13.67436526	      0.23866270	     19.79379711	      3.53797339	      0.00000000	     -3.89143243	     -5.18332462	     -2.02741374	      6.63577484	      0.11581612	     21.37877022	      1.90494183	      0.00000000	     -0.35563250	      1.11219142	     -4.33923911	     -0.66044511	      1.47921459	     -4.61044156	     -0.58426863	      2.70418222	     -4.61044156	     -0.40645238	      2.70418222	     -3.79683422	     -0.33024034	      2.26798074	     -3.52563178	     -0.20320841	      1.72278451	     -3.25442933	     -2.54024735	     12.58133178	    -24.13354617	      0.00000000	      0.00000000	     16.43590504	    -10.27825012	     36.39198355	    119.08657111	     16.53682048	    154.21087218	      0.05747250	      0.98496142	    -69.84457721	    -24.59347535	    -14.32133190	    -20.47037996	    -36.90652837	    104.18261556	     88.39239770	     -8.92564705	      7.85300400
      7.25000000	      3.00000926	      5.96397222	     98.52826106	      0.26706318	      0.70082365	      0.96136199	     -0.86938472	      3.08890540	     -8.61552791	     14.22532692	      0.24827879	     20.19573939	      2.98644329	      0.00000000	     -4.34199022	     -5.05531483	     -2.02961381	      6.82417527	      0.11910433	     21.43927543	      1.62351417	      0.00000000	     -0.38332511	      1.09372134	     -4.85478599	     -0.71187307	      1.45464938	     -5.15821012	     -0.62976483	      2.65927406	     -5.15821012	     -0.43810227	      2.65927406	     -4.24793774	     -0.35595570	      2.23031655	     -3.94451362	     -0.21903197	      1.69417435	     -3.64108950	     -2.73805295	     12.37239452	    -27.00086326	      0.00000000	      0.00000000	     16.08209277	    -10.36737060	     38.31169221	    116.77313787	     19.01183509	    154.27273159	      0.05563532	      0.92510768	    -69.85144504	    -24.60034555	    -14.01008042	    -24.14978464	    -42.91671120	    107.19877980	     88.06161752	     -8.62216565	      6.48470825
